<svg width="19" height="19" viewBox="0 0 19 19" fill="none" xmlns="http://www.w3.org/2000/svg">
<path fill-rule="evenodd" clip-rule="evenodd" d="M15.2714 5.57379V6.93676C17.0674 7.41464 18.3759 8.80058 18.3759 10.4559V14.8443C18.3759 16.8936 16.3829 18.5551 13.9257 18.5551H5.10064C2.64245 18.5551 0.649414 16.8936 0.649414 14.8443V10.4559C0.649414 8.80058 1.95903 7.41464 3.75394 6.93676V5.57379C3.76453 2.92382 6.33927 0.777344 9.49677 0.777344C12.6967 0.777344 15.2714 2.92382 15.2714 5.57379ZM9.51796 2.32316C11.6689 2.32316 13.4172 3.78065 13.4172 5.57379V6.74508H5.60817V5.55613C5.61877 3.77181 7.36705 2.32316 9.51796 2.32316ZM10.4398 13.6262C10.4398 14.059 10.0266 14.4035 9.50736 14.4035C8.99877 14.4035 8.58554 14.059 8.58554 13.6262V11.6652C8.58554 11.2412 8.99877 10.8967 9.50736 10.8967C10.0266 10.8967 10.4398 11.2412 10.4398 11.6652V13.6262Z" fill="#2D98FF"/>
</svg>
